<?xml version="1.0"?><svg width="640" height="480" xmlns="http://www.w3.org/2000/svg">
 <title>yellow house</title>
 <metadata id="metadata7">image/svg+xml</metadata>
 <g>
  <path d="m486.806,224.505005l0,0zm0,0l-173.80899,-150.596802l-173.910004,150.661804l0,215.286987c0,5.559998 4.591995,10.02002 10.274994,10.02002l108.688995,0l0,-94.392029c0,-5.559998 4.55899,-10.052979 10.242004,-10.052979l89.307007,0c5.682983,0 10.242004,4.492981 10.242004,10.052979l0,94.392029l108.721985,0c5.683014,0 10.242004,-4.460022 10.242004,-10.02002l0,-215.35199zm-347.718994,0.065002l0,0z" stroke-width="5" stroke-miterlimit="4" stroke="#000000" fill="#ffff00" id="rect2391"/>
  <path d="m312.588989,33l-220.588989,190.477005l23.237,25.563995l198.255005,-171.204803l198.209991,171.204803l23.19101,-25.563995l-220.544006,-190.477005l-0.856995,0.967999l-0.903015,-0.967999z" stroke-width="5" stroke-miterlimit="4" stroke="#000000" fill="#ffff00" id="path2399"/>
  <path d="m153.087006,84.448997l58.570999,0l-0.51001,34.691002l-58.060989,52.451996l0,-87.142998z" stroke-width="5" stroke-miterlimit="4" stroke="#000000" fill="#7f3f00" id="rect2404"/>
  <title>Layer 1</title>
  <path d="m259,451c110,1 110,0 110,0c0,0 -2,-103 -2,-103c0,0 -109,1 -109,1" stroke-width="5" stroke-linejoin="null" stroke-linecap="null" stroke-dasharray="null" stroke="#000000" fill="#7f3f00" id="svg_12"/>
 </g>
</svg>